<svg width="128" height="128" viewBox="0 0 128 128" fill="none" xmlns="http://www.w3.org/2000/svg">
<rect width="128" height="128" rx="32" fill="url(#paint0_linear_864_2950)"/>
<path d="M104.944 60.39L99.6103 55.0566C99.4865 54.9328 99.3396 54.8346 99.1778 54.7675C99.0161 54.7005 98.8427 54.666 98.6676 54.666C98.4925 54.666 98.3191 54.7005 98.1574 54.7675C97.9956 54.8346 97.8487 54.9328 97.7249 55.0566L92.3916 60.39C92.2677 60.5137 92.1695 60.6607 92.1025 60.8224C92.0354 60.9842 92.001 61.1576 92.001 61.3326V74.666C92.0009 74.8411 92.0354 75.0145 92.1024 75.1763C92.1694 75.3381 92.2676 75.4851 92.3914 75.6089C92.5152 75.7327 92.6622 75.8309 92.824 75.8979C92.9858 75.9649 93.1592 75.9994 93.3343 75.9993H104.001C104.176 75.9994 104.349 75.9649 104.511 75.8979C104.673 75.8309 104.82 75.7327 104.944 75.6089C105.068 75.4851 105.166 75.3381 105.233 75.1763C105.3 75.0145 105.334 74.8411 105.334 74.666V61.3326C105.334 61.1576 105.3 60.9842 105.233 60.8224C105.166 60.6607 105.068 60.5137 104.944 60.39Z" fill="white"/>
<path d="M81.3343 43.9995H41.3343C41.1592 43.9995 40.9858 44.0339 40.824 44.1009C40.6622 44.1679 40.5152 44.2661 40.3914 44.3899C40.2676 44.5138 40.1694 44.6608 40.1024 44.8225C40.0354 44.9843 40.0009 45.1577 40.001 45.3328V65.3328C40.0009 65.5866 40.0733 65.8351 40.2096 66.0492C40.3459 66.2632 40.5405 66.4339 40.7705 66.5412L60.7705 75.8745C60.9471 75.9568 61.1395 75.9995 61.3343 75.9995C61.5291 75.9995 61.7216 75.9568 61.8981 75.8745L81.8981 66.5412C82.1281 66.4339 82.3227 66.2632 82.459 66.0492C82.5953 65.8351 82.6677 65.5866 82.6676 65.3328V45.3328C82.6677 45.1577 82.6332 44.9843 82.5662 44.8225C82.4993 44.6608 82.401 44.5138 82.2772 44.3899C82.1534 44.2661 82.0064 44.1679 81.8446 44.1009C81.6828 44.0339 81.5094 43.9995 81.3343 43.9995Z" fill="white"/>
<path d="M81.3343 43.9995H41.3343C41.1592 43.9995 40.9858 44.0339 40.824 44.1009C40.6622 44.1679 40.5152 44.2661 40.3914 44.3899C40.2676 44.5138 40.1694 44.6608 40.1024 44.8225C40.0354 44.9843 40.0009 45.1577 40.001 45.3328V58.1825L60.7705 67.8745C60.9471 67.9569 61.1395 67.9995 61.3343 67.9995C61.5291 67.9995 61.7216 67.9569 61.8981 67.8745L82.6676 58.1824V45.3328C82.6677 45.1577 82.6332 44.9843 82.5662 44.8225C82.4993 44.6608 82.401 44.5138 82.2772 44.3899C82.1534 44.2661 82.0064 44.1679 81.8446 44.1009C81.6828 44.0339 81.5094 43.9995 81.3343 43.9995Z" fill="white"/>
<path d="M99.2292 38.7899L61.8958 21.4565C61.7199 21.3755 61.5284 21.3335 61.3346 21.3335C61.1409 21.3335 60.9494 21.3755 60.7734 21.4565L23.4401 38.7899C23.2095 38.8969 23.0143 39.0677 22.8775 39.282C22.7407 39.4963 22.668 39.7453 22.668 39.9995C22.668 40.2538 22.7407 40.5027 22.8775 40.717C23.0143 40.9314 23.2095 41.1021 23.4401 41.2092L60.7734 58.5425C60.9493 58.624 61.1408 58.6662 61.3346 58.6662C61.5285 58.6662 61.72 58.624 61.8958 58.5425L99.2292 41.2092C99.4598 41.1021 99.655 40.9314 99.7918 40.717C99.9286 40.5027 100.001 40.2538 100.001 39.9995C100.001 39.7453 99.9286 39.4963 99.7918 39.282C99.655 39.0677 99.4598 38.8969 99.2292 38.7899Z" fill="white"/>
<path d="M98.6676 51.9993C98.4925 51.9994 98.3191 51.9649 98.1573 51.8979C97.9956 51.831 97.8486 51.7327 97.7247 51.6089C97.6009 51.4851 97.5027 51.3381 97.4357 51.1763C97.3687 51.0145 97.3343 50.8411 97.3343 50.666V41.3327H61.3343C60.9807 41.3327 60.6415 41.1922 60.3915 40.9422C60.1415 40.6921 60.001 40.353 60.001 39.9993C60.001 39.6457 60.1415 39.3066 60.3915 39.0565C60.6415 38.8065 60.9807 38.666 61.3343 38.666H98.6676C98.8428 38.666 99.0162 38.7004 99.1779 38.7674C99.3397 38.8344 99.4867 38.9326 99.6106 39.0564C99.7344 39.1803 99.8326 39.3273 99.8996 39.4891C99.9666 39.6508 100.001 39.8242 100.001 39.9993V50.666C100.001 50.8411 99.9666 51.0145 99.8996 51.1763C99.8326 51.3381 99.7344 51.4851 99.6106 51.6089C99.4867 51.7327 99.3397 51.831 99.1779 51.8979C99.0162 51.9649 98.8428 51.9994 98.6676 51.9993Z" fill="white"/>
<path d="M98.6683 59.9997C101.614 59.9997 104.002 57.6119 104.002 54.6663C104.002 51.7208 101.614 49.333 98.6683 49.333C95.7228 49.333 93.335 51.7208 93.335 54.6663C93.335 57.6119 95.7228 59.9997 98.6683 59.9997Z" fill="white"/>
<path d="M87.6983 101.286C85.9124 100.799 84.001 96.415 84.001 90.6663C84.001 84.9177 85.9124 80.5335 87.6983 80.0466C88.0264 79.957 88.3079 79.7454 88.4852 79.4552C88.6625 79.1649 88.7222 78.8179 88.6521 78.4851C88.582 78.1523 88.3874 77.8588 88.1081 77.6648C87.8288 77.4707 87.4858 77.3907 87.1495 77.4411L61.3343 81.3187L35.5107 77.4398L34.8571 77.346C34.7943 77.3372 34.731 77.3328 34.6676 77.333C30.8669 77.333 28.001 83.0648 28.001 90.6663C28.001 98.2679 30.8669 104 34.6676 104C34.731 104 34.7943 103.996 34.8571 103.987L61.3343 100.014L87.1494 103.892C87.4858 103.942 87.8287 103.862 88.108 103.668C88.3873 103.474 88.5819 103.18 88.652 102.848C88.7221 102.515 88.6624 102.168 88.4851 101.878C88.3078 101.587 88.0264 101.376 87.6983 101.286Z" fill="white"/>
<path d="M66.6683 78.666H56.0016C55.2946 78.6668 54.6168 78.948 54.1169 79.448C53.617 79.9479 53.3358 80.6257 53.335 81.3327V105.333C53.335 105.551 53.3884 105.765 53.4906 105.958C53.5927 106.15 53.7405 106.315 53.9209 106.437C54.1014 106.559 54.309 106.635 54.5256 106.659C54.7423 106.682 54.9614 106.652 55.1637 106.571L61.335 104.102L67.5062 106.571C67.7085 106.652 67.9276 106.682 68.1443 106.659C68.3609 106.635 68.5686 106.559 68.749 106.437C68.9294 106.315 69.0772 106.15 69.1793 105.958C69.2815 105.765 69.3349 105.551 69.335 105.333V81.3327C69.3342 80.6257 69.0529 79.9479 68.553 79.448C68.0531 78.948 67.3753 78.6668 66.6683 78.666Z" fill="white"/>
<path d="M88.0016 77.333C87.9382 77.3328 87.8749 77.3372 87.8122 77.346L87.1585 77.4398C87.1041 77.4478 87.0502 77.4591 86.9971 77.4736C83.6631 78.3838 81.335 83.8083 81.335 90.6663C81.335 97.5244 83.6631 102.949 86.9971 103.859C87.0502 103.874 87.1041 103.885 87.1585 103.893L87.8122 103.987C87.8749 103.996 87.9382 104 88.0016 104C91.8024 104 94.6683 98.2679 94.6683 90.6663C94.6683 83.0648 91.8024 77.333 88.0016 77.333Z" fill="white"/>
<path d="M85.335 89.333H81.3661C81.3463 89.771 81.335 90.2151 81.335 90.6663C81.335 97.5244 83.6631 102.949 86.9971 103.859C87.0502 103.874 87.1041 103.885 87.1585 103.893L87.8122 103.987C87.8749 103.996 87.9382 104 88.0016 104C88.4574 103.998 88.9091 103.914 89.335 103.751V93.333C89.3338 92.2725 88.912 91.2558 88.1621 90.5059C87.4122 89.756 86.3955 89.3342 85.335 89.333Z" fill="white"/>
<defs>
<linearGradient id="paint0_linear_864_2950" x1="64" y1="0" x2="64" y2="128" gradientUnits="userSpaceOnUse">
<stop stop-color="#925FE2"/>
<stop offset="1" stop-color="#7042C0"/>
</linearGradient>
</defs>
</svg>
