<svg width="24" height="24" viewBox="0 0 24 24" fill="none" xmlns="http://www.w3.org/2000/svg">
<path fill-rule="evenodd" clip-rule="evenodd" d="M17.293 14.2931C17.1108 14.4817 17.01 14.7343 17.0123 14.9965C17.0146 15.2587 17.1198 15.5095 17.3052 15.6949C17.4906 15.8803 17.7414 15.9855 18.0036 15.9878C18.2658 15.99 18.5184 15.8892 18.707 15.7071L21.62 12.7941L21.664 12.7481C21.77 12.6544 21.8549 12.5393 21.9131 12.4104C21.9712 12.2814 22.0013 12.1415 22.0013 12.0001C22.0013 11.8586 21.9712 11.7188 21.9131 11.5898C21.8549 11.4609 21.77 11.3457 21.664 11.2521C21.6498 11.2363 21.6351 11.221 21.62 11.2061L18.707 8.29308C18.6148 8.19757 18.5044 8.12139 18.3824 8.06898C18.2604 8.01657 18.1292 7.98898 17.9964 7.98783C17.8636 7.98668 17.7319 8.01198 17.609 8.06226C17.4862 8.11254 17.3745 8.18679 17.2806 8.28069C17.1867 8.37458 17.1125 8.48623 17.0622 8.60913C17.0119 8.73202 16.9866 8.8637 16.9877 8.99648C16.9889 9.12926 17.0165 9.26048 17.0689 9.38249C17.1213 9.50449 17.1975 9.61483 17.293 9.70708L18.586 11.0001H13C12.7348 11.0001 12.4804 11.1054 12.2929 11.293C12.1054 11.4805 12 11.7349 12 12.0001C12 12.2653 12.1054 12.5197 12.2929 12.7072C12.4804 12.8947 12.7348 13.0001 13 13.0001H18.586L17.293 14.2931Z" fill="white" fill-opacity="0.75"/>
<path fill-rule="evenodd" clip-rule="evenodd" d="M5 2C4.20435 2 3.44129 2.31607 2.87868 2.87868C2.31607 3.44129 2 4.20435 2 5V19C2 19.7956 2.31607 20.5587 2.87868 21.1213C3.44129 21.6839 4.20435 22 5 22H14.5C15.163 22 15.7989 21.7366 16.2678 21.2678C16.7366 20.7989 17 20.163 17 19.5V16.733C16.5406 16.4676 16.2054 16.0306 16.0679 15.5182C15.9305 15.0057 16.0021 14.4597 16.267 14H13C12.4696 14 11.9609 13.7893 11.5858 13.4142C11.2107 13.0391 11 12.5304 11 12C11 11.4696 11.2107 10.9609 11.5858 10.5858C11.9609 10.2107 12.4696 10 13 10H16.267C16.1356 9.77245 16.0503 9.52122 16.016 9.26069C15.9817 9.00015 15.9991 8.73541 16.0671 8.4816C16.1352 8.22779 16.2526 7.98988 16.4127 7.78147C16.5728 7.57307 16.7723 7.39824 17 7.267V4.5C17 3.83696 16.7366 3.20107 16.2678 2.73223C15.7989 2.26339 15.163 2 14.5 2H5Z" fill="white" fill-opacity="0.75"/>
</svg>
